<svg width="886" height="667" viewBox="0 0 886 667" fill="none" xmlns="http://www.w3.org/2000/svg">
<path d="M606.133 486.311H245.563V231.861C245.563 224.887 251.219 219.231 258.195 219.231H593.501C600.479 219.231 606.133 224.887 606.133 231.861V297.607H592.749V232.313H258.309V437.764H592.749V416.347H606.133V486.311Z" fill="url(#paint0_linear)"/>
<path d="M592.749 437.764H258.309V232.313H592.749V297.607H486.125C483.169 297.607 480.773 300.003 480.773 302.959V410.993C480.773 413.949 483.169 416.347 486.125 416.347H592.749V437.764" fill="url(#paint1_linear)"/>
<path d="M139.676 231.991H221.679C220.08 223.984 212.889 218.036 204.655 218.036C202.784 218.036 200.944 218.332 199.185 218.917L198.736 219.065L198.465 218.679C193.916 212.223 186.497 208.369 178.616 208.369C169.387 208.369 161.077 213.495 156.933 221.747L156.705 222.199L156.213 222.079C155.153 221.816 154.059 221.684 152.959 221.684C146.673 221.684 141.208 225.973 139.676 231.991V231.991ZM223.179 233.263H138.109L138.257 232.505C139.623 225.499 145.807 220.412 152.959 220.412C153.992 220.412 155.02 220.519 156.025 220.731C160.457 212.308 169.068 207.097 178.616 207.097C186.753 207.097 194.424 211.001 199.232 217.567C200.984 217.033 202.807 216.764 204.655 216.764C213.911 216.764 221.655 223.395 223.065 232.529L223.179 233.263" fill="#6AAFE8"/>
<path d="M510.421 83.5653C510.039 87.6093 508.768 113.232 535.601 127.12C562.437 113.232 561.165 87.6093 560.783 83.5653C544.117 83.4613 537.335 78.82 535.601 77.3466C533.869 78.82 527.085 83.4613 510.421 83.5653ZM535.601 128.549L535.313 128.401C505.124 112.988 509.179 83.1386 509.223 82.8386L509.303 82.2946H509.851C529.045 82.2946 535.077 76.1093 535.136 76.048L535.604 75.5506L536.069 76.0493C536.127 76.1093 542.159 82.2946 561.352 82.2946H561.9L561.981 82.8386C562.025 83.1386 566.08 112.988 535.889 128.401L535.601 128.549Z" fill="#6AAFE8"/>
<path d="M700.791 525.257C696.247 504.492 706.065 499.309 715.56 494.3C723.32 490.203 730.649 486.336 730.259 474.097C729.741 457.873 740.793 451.972 750.544 446.764C757.799 442.889 764.649 439.231 765.671 431.848C768.131 414.085 784.515 392.008 784.679 391.788L785.697 392.549C785.533 392.765 769.344 414.585 766.931 432.024C765.82 440.045 758.689 443.853 751.143 447.885C741.257 453.164 731.036 458.623 731.528 474.057C731.944 487.088 723.916 491.325 716.153 495.423C706.661 500.432 697.695 505.164 702.032 524.985L700.791 525.257" fill="url(#paint2_linear)"/>
<path d="M693.767 509.773C697.897 515.496 701.647 518.409 705.217 518.675C710.208 519.044 714.756 514.305 720.023 508.82C726.809 501.752 734.5 493.743 746.127 492.737C760.091 491.528 761.333 478.985 762.536 466.857C763.611 456.016 764.624 445.776 774.556 444.336C783.916 442.98 789.939 439.839 792.459 434.996C794.56 430.96 794.121 425.748 791.185 419.924C788.405 414.409 792.416 406.641 796.661 398.421C801.268 389.503 806.029 380.279 801.257 374.593C800.539 373.737 799.667 373.303 798.593 373.263C793.203 373.084 784.056 382.496 774.376 392.475C763.156 404.043 751.557 415.997 743.069 415.999L742.745 415.993C735.075 415.708 732.419 424.652 729.345 435.005C725.969 446.387 722.141 459.287 710.308 462.104C700.867 464.353 696.736 465.607 695.593 467.549C694.785 468.919 695.341 470.899 696.263 474.18C696.94 476.596 697.781 479.603 698.417 483.559C700.897 499.02 695.203 507.84 693.767 509.773V509.773ZM705.777 519.965C705.56 519.965 705.343 519.957 705.123 519.941C701.016 519.637 696.992 516.516 692.455 510.124L692.171 509.723L692.489 509.347C692.561 509.257 699.833 500.397 697.164 483.76C696.54 479.877 695.708 476.908 695.039 474.523C694.061 471.04 693.417 468.741 694.497 466.905C695.869 464.576 699.575 463.355 710.015 460.868C721.132 458.22 724.848 445.695 728.128 434.644C731.217 424.236 734.143 414.419 742.792 414.723C750.741 415.027 762.813 402.571 773.463 391.591C783.347 381.403 792.673 371.804 798.639 371.993C800.071 372.045 801.279 372.645 802.229 373.777C807.547 380.109 802.587 389.716 797.791 399.005C793.699 406.929 789.833 414.415 792.32 419.352C795.447 425.555 795.885 431.169 793.585 435.583C790.867 440.807 784.525 444.176 774.739 445.593C765.791 446.892 764.825 456.649 763.8 466.981C762.607 479.039 761.251 492.703 746.236 494.003C735.087 494.968 727.571 502.795 720.94 509.7C715.667 515.192 711.083 519.965 705.777 519.965" fill="url(#paint3_linear)"/>
<path d="M679.772 343.616C678.779 343.616 678.033 343.849 677.477 344.32C675.14 346.309 675.321 353.092 675.652 365.407C675.761 369.492 675.885 374.123 675.947 379.481C676.088 391.652 679.76 399.417 682.44 405.088C686.129 412.897 688.357 417.609 676.305 424.555C671.581 427.279 668.848 430.412 667.952 434.135C666.215 441.36 671.8 449.967 677.203 458.291C679.3 461.524 681.469 464.864 683.189 468.096C685.421 472.287 687.68 478.723 690.072 485.537C694.721 498.78 699.991 513.791 705.911 514.329C708.171 514.531 710.548 512.484 712.976 508.236C718.667 498.277 718.343 489.673 717.969 479.708C717.471 466.387 716.904 451.287 731.007 428.997C736.671 420.041 738.635 412.987 737.005 407.431C735.012 400.629 727.996 397.355 721.805 394.467C717.221 392.328 713.26 390.48 712.457 387.521C712.061 386.059 712.461 384.491 713.68 382.724C717.519 377.165 718.791 372.979 717.569 369.924C715.811 365.52 708.661 363.479 701.899 362.064C693.381 360.28 690.481 354.864 688.151 350.515C686.405 347.257 684.899 344.445 681.523 343.804C680.868 343.679 680.285 343.616 679.772 343.616V343.616ZM706.241 515.615C706.093 515.615 705.944 515.608 705.796 515.593C699.061 514.98 693.883 500.227 688.875 485.959C686.499 479.191 684.255 472.797 682.068 468.695C680.375 465.511 678.22 462.192 676.136 458.981C670.588 450.433 664.851 441.593 666.719 433.837C667.7 429.756 670.628 426.361 675.671 423.455C686.708 417.093 685.011 413.503 681.291 405.632C678.56 399.856 674.821 391.945 674.676 379.497C674.615 374.147 674.492 369.521 674.381 365.44C674.029 352.32 673.853 345.736 676.655 343.353C677.815 342.367 679.437 342.113 681.76 342.555C685.733 343.311 687.451 346.52 689.271 349.915C691.591 354.248 694.221 359.157 702.159 360.819C709.608 362.377 716.773 364.503 718.749 369.453C720.14 372.933 718.825 377.511 714.725 383.447C713.732 384.885 713.391 386.109 713.684 387.188C714.333 389.579 718.044 391.309 722.343 393.315C728.457 396.169 736.069 399.721 738.225 407.075C739.963 413.003 737.952 420.396 732.08 429.676C718.188 451.633 718.747 466.525 719.239 479.661C719.605 489.397 719.949 498.592 714.079 508.865C711.488 513.401 708.919 515.613 706.241 515.615" fill="url(#paint4_linear)"/>
<path d="M706.375 523.488L705.164 523.105C711.952 501.645 699.671 453.497 696.012 441.78C694.212 436.019 695.875 427.344 697.484 418.956C699.561 408.123 701.711 396.919 696.231 392.72C685.944 384.833 686.487 366.587 686.513 365.813L687.783 365.861C687.777 366.043 687.24 384.225 697.004 391.712C703.107 396.388 700.883 407.983 698.731 419.195C697.153 427.429 695.52 435.943 697.223 441.401C701.752 455.892 713.148 502.08 706.375 523.488" fill="url(#paint5_linear)"/>
<path d="M697.276 518.523C692.312 518.523 687.707 501.02 681.4 492.995C673.96 483.525 670.916 468.644 662.123 457.823C653.331 447.001 628.643 443.62 639.465 426.372C641.855 422.565 643.369 419.072 644.269 415.828C646.076 414.968 647.324 413.127 647.324 410.993V379.6C647.715 379.527 648.115 379.489 648.515 379.489C651.129 379.489 653.819 381.047 655.021 384.099C663.815 406.419 680.987 402.647 679.013 412.407C674.541 434.525 688.164 437.531 701.711 447.34C715.256 457.147 701.711 466.781 701.035 482C700.359 497.219 706.088 508.213 700 516.668C699.072 517.956 698.168 518.523 697.276 518.523" fill="url(#paint6_linear)"/>
<path d="M709.856 518.625C709.781 518.176 702.261 473.597 685.423 461.38C668.252 448.923 665.132 437.415 659.135 410.276L660.376 410.003C666.3 436.805 669.373 448.168 686.168 460.353C703.429 472.875 710.804 516.564 711.111 518.417L709.856 518.625Z" fill="white"/>
<path d="M694.664 517.028C694.664 517.028 699.667 504.655 690.561 487.068C681.455 469.479 674.085 472.185 696.036 458.655C717.985 445.125 696.173 402.508 714.859 397.097C733.544 391.685 749.779 322.707 763.985 331.491C778.192 340.273 759.249 374.097 769.396 384.244C779.544 394.392 780.897 407.304 759.927 417.757C738.955 428.213 774.809 468.127 746.397 480.303C717.985 492.479 726.135 540.224 694.664 517.028" fill="url(#paint7_linear)"/>
<path d="M703.343 530.151C703.311 529.992 700.256 514.149 709.908 493.68C719.741 472.825 724.448 450.028 722.5 432.695C721.443 423.308 727.455 419.637 733.272 416.085C738.997 412.589 744.917 408.975 744.591 399.727C744.296 391.372 747.832 371.787 747.983 370.957L749.233 371.185C749.196 371.387 745.569 391.464 745.861 399.683C746.213 409.673 739.971 413.484 733.933 417.169C728.205 420.668 722.796 423.971 723.763 432.552C725.736 450.109 720.988 473.163 711.057 494.22C701.596 514.287 704.556 529.745 704.588 529.899L703.343 530.151" fill="white"/>
<path d="M726.301 442.731C732.681 436.805 741.119 435.951 739.361 444.741C737.604 453.531 731.575 456.044 734.591 461.569C737.604 467.095 742.627 472.62 734.088 479.403C725.548 486.184 720.776 486.936 718.264 499.748C715.752 512.556 716.255 521.304 705.203 521.851C694.151 522.396 698.421 506.276 701.937 498.992C701.937 498.992 707.212 490.681 703.695 479.767C700.179 468.853 693.397 462.959 707.715 459.251C722.031 455.541 722 446.727 726.301 442.731" fill="white"/>
<path d="M706.001 530.039C705.965 528.472 705.207 491.572 712.109 485.361C719.157 479.017 720.511 467.807 720.691 461.691C720.927 453.719 731.223 448.987 731.663 448.791L732.184 449.948C732.084 449.993 722.172 454.552 721.96 461.727C721.733 469.447 719.988 479.979 712.957 486.305C706.487 492.131 707.263 529.632 707.272 530.011L706.001 530.039" fill="url(#paint8_linear)"/>
<path d="M731.924 514.979L720.475 558.414H694.889L683.443 514.979H731.924" fill="url(#paint9_linear)"/>
<path d="M731.924 514.979C731.924 514.979 706.721 519.711 706.721 558.414H694.889L683.443 514.979H731.924" fill="url(#paint10_linear)"/>
<path d="M280.889 405.291H247.193V401.475H280.889V405.291Z" fill="#1487E3"/>
<path d="M240.16 296.207H186.38V227.431H187.651V294.936H240.16V296.207" fill="#78C2FF"/>
<path d="M467.796 250.889H466.525V179.971H534.965V120.328H536.237V181.241H467.796V250.889Z" fill="#78C2FF"/>
<path d="M688.893 329.889H617.684V328.617H687.621V287.269H688.893V329.889Z" fill="#78C2FF"/>
<path d="M156.513 387.353C156.513 387.353 154.989 408.748 159.168 411.308C161.787 412.913 172.228 418.323 171.919 419.339C171.609 420.353 166.023 428.364 166.023 428.364C166.023 428.364 145.967 415.157 145.32 410.996C144.688 406.929 146.307 379.669 149.064 378.413C151.129 377.472 152.219 378.251 154.823 380.183C158.473 382.893 156.513 387.353 156.513 387.353" fill="#FF7E55"/>
<path d="M154.181 543.052C154.181 543.052 153.557 547.381 153.481 548.031C153.403 548.681 146.543 547.648 146.543 547.648L145.987 542.495C145.987 542.495 153.325 542.441 154.181 543.052Z" fill="#424773"/>
<path d="M153.555 547.48C153.555 547.48 155.725 550.089 157.829 551.226C159.932 552.362 163.233 552.813 164.479 553.992C165.375 554.841 167.747 558.497 159.015 558.424C150.283 558.35 146.075 558.941 145.14 557.538C144.204 556.137 146.493 547.188 146.493 547.188C146.493 547.188 148.56 547.931 153.555 547.48Z" fill="#292C47"/>
<path d="M188.515 543.052C188.515 543.052 187.889 547.381 187.812 548.031C187.733 548.681 180.875 547.648 180.875 547.648L180.32 542.495C180.32 542.495 187.659 542.441 188.515 543.052Z" fill="#424773"/>
<path d="M187.887 547.48C187.887 547.48 190.059 550.089 192.161 551.226C194.264 552.362 202 553.297 203.243 554.474C204.14 555.324 205.632 558.745 193.348 558.424C184.619 558.196 180.408 558.941 179.471 557.538C178.536 556.137 180.825 547.188 180.825 547.188C180.825 547.188 182.773 547.981 187.887 547.48Z" fill="#292C47"/>
<path d="M156.643 431.815C156.643 431.815 150.197 442.057 150.677 451.313C151.159 460.572 150.104 470.461 149.135 480.131C148.056 490.912 145.115 513.348 144.955 519.113C144.793 524.881 145.165 546.581 145.165 546.581L156.345 546.497C156.345 546.497 160.315 502.66 162.239 498.107C164.161 493.553 172.056 460.62 172.377 456.977C172.697 453.336 156.643 431.815 156.643 431.815Z" fill="#292C47"/>
<path d="M190.575 433.203C190.575 433.203 193.121 458.369 193.763 464.036C194.403 469.701 193.965 494.252 194.284 497.795C194.607 501.335 192.143 538.79 191.536 545.921L179.247 545.844C179.247 545.844 178.399 515.545 178.399 500.825C178.399 486.104 174.621 468.968 170.293 459.255C165.965 449.541 156.059 449.312 153.399 431.292C153.399 431.292 186.973 427.488 190.575 433.203" fill="#292C47"/>
<path d="M163.452 345.469C163.452 345.469 171.132 340.339 176.525 345.835C181.919 351.329 184.569 364.251 180.697 366.831C176.824 369.409 170.253 370.085 167.135 366.585C164.016 363.088 160.687 357.751 159.869 353.855C159.049 349.956 161.504 347.109 163.452 345.469" fill="#EEA886"/>
<path d="M178.085 367.7C178.085 367.7 177.985 373.099 178.58 374.249C179.176 375.4 167.372 375.429 167.372 375.429C167.372 375.429 166.413 369.171 164.596 363.883C162.779 358.593 178.085 367.7 178.085 367.7" fill="#EEA886"/>
<path d="M164.892 363.796C164.892 363.796 165.993 364.917 169.111 363.647C172.228 362.376 175.161 357.139 176.4 356.349C177.643 355.557 177.467 354.76 177.467 354.76L178.605 355.797L180.061 355.548C180.061 355.548 177.844 352.005 179.449 349.969C181.055 347.932 174.461 337.981 164.935 344.057C164.935 344.057 157.48 348.135 158.837 352.6C160.197 357.067 162.575 361.959 164.892 363.796" fill="#754836"/>
<path d="M179.28 374.111C179.28 374.111 179.244 371.913 178.247 371.701C177.251 371.491 167.247 370.528 166.023 371.011V373.571C166.023 373.571 168.381 375.021 179.28 374.111Z" fill="#E2D2CA"/>
<path d="M176.864 353.161C176.504 352.443 174.056 350.725 173.864 353.227C173.672 355.729 176.271 358.42 177.244 357.909C178.219 357.397 177.779 354.98 176.864 353.161" fill="#EEA886"/>
<path d="M161.232 346.791C161.232 346.791 150.248 349.736 164.447 363.371L161.232 346.791Z" fill="#754836"/>
<path d="M259.367 405.189L248.173 405.085C249.14 404.524 250.701 403.513 250.356 403.052C249.863 402.396 246.693 403.837 245.405 403.969C244.224 404.089 242.244 403.937 240.741 404.485L237.207 405.992L240.447 408.991C240.447 408.991 246.301 409.831 248.015 409.951C250.801 410.147 259.328 406.828 259.468 406.324C259.723 405.417 259.367 405.189 259.367 405.189" fill="#EEA886"/>
<path d="M193.892 377.157C186.773 375.907 179.28 374.111 179.28 374.111L166.023 373.569C166.023 373.569 153.856 376.248 149.064 378.413C148.609 378.619 148.609 389.268 147.36 392.06L151.333 400.441C151.333 400.441 153.628 417.044 154.104 424.427C154.323 427.817 149.372 456.213 149.372 456.213C149.372 456.213 154.676 457.775 163.725 458.772C172.773 459.769 195.381 458.412 195.523 457.344C195.667 456.275 191.145 417.551 190.944 415.545C190.637 412.468 191.833 398.247 191.833 398.247C193.539 400.535 203.395 409.125 208.207 411.855C211.629 413.796 220.025 412.609 222.499 412.359C227.851 411.809 242.637 410.752 242.927 410.227C243.157 409.912 242.076 404.52 241.457 404.313C240.916 404.133 221.828 403.191 217.04 403.437C215.097 403.54 208.76 396.463 208.76 396.463C208.76 396.463 197.82 378.921 193.892 377.157" fill="#FF7E55"/>
<path d="M112.361 323.568H147.404V354.315L142.055 348.967H112.361V323.568Z" fill="#FFCB55"/>
<path d="M643.76 241.6H675.536V209.824H643.76V241.6ZM676.671 242.736H642.624V208.689H676.671V242.736Z" fill="#6AAFE8"/>
<path d="M684.613 220.037H760.273V213.985H684.613V220.037ZM761.408 221.172H683.481V212.849H761.408V221.172Z" fill="#6AAFE8"/>
<path d="M643.76 258.741H760.273V252.689H643.76V258.741ZM761.408 259.876H642.624V251.555H761.408V259.876Z" fill="#6AAFE8"/>
<path d="M643.76 274.724H717.148V268.672H643.76V274.724ZM718.283 275.86H642.624V267.536H718.283V275.86" fill="#6AAFE8"/>
<path d="M684.613 235.913H735.116V229.861H684.613V235.913ZM736.252 237.049H683.481V228.725H736.252V237.049Z" fill="#6AAFE8"/>
<path d="M630.236 292.824H773.797V191.724H630.236V292.824ZM774.933 293.959H629.101V190.589H774.933V293.959Z" fill="#6AAFE8"/>
<path d="M577.681 144.295H566.771V143.023H576.411V133.392H577.681V144.295Z" fill="#6AAFE8"/>
<path d="M504.311 144.295H493.397V133.392H494.671V143.023H504.311V144.295" fill="#6AAFE8"/>
<path d="M494.675 70.9279H493.403V60.0159H504.307V61.2879H494.675V70.9279" fill="#6AAFE8"/>
<path d="M577.681 70.924H576.411V61.2933H566.771V60.0213H577.681V70.924" fill="#6AAFE8"/>
<path d="M577.681 117.1H576.411V87.216H577.681V117.1Z" fill="#6AAFE8"/>
<path d="M494.671 117.1H493.397V87.216H494.671V117.1Z" fill="#6AAFE8"/>
<path d="M187.016 219.999C185.141 219.999 183.616 221.523 183.616 223.396C183.616 225.271 185.141 226.795 187.016 226.795C188.889 226.795 190.413 225.271 190.413 223.396C190.413 221.523 188.889 219.999 187.016 219.999ZM187.016 228.067C184.44 228.067 182.345 225.972 182.345 223.396C182.345 220.821 184.44 218.727 187.016 218.727C189.591 218.727 191.685 220.821 191.685 223.396C191.685 225.972 189.591 228.067 187.016 228.067Z" fill="#78C2FF"/>
<path d="M535.601 112.895C533.728 112.895 532.203 114.419 532.203 116.293C532.203 118.167 533.728 119.692 535.601 119.692C537.476 119.692 539 118.167 539 116.293C539 114.419 537.476 112.895 535.601 112.895ZM535.601 120.964C533.027 120.964 530.932 118.868 530.932 116.293C530.932 113.719 533.027 111.624 535.601 111.624C538.176 111.624 540.272 113.719 540.272 116.293C540.272 118.868 538.176 120.964 535.601 120.964Z" fill="#78C2FF"/>
<path d="M688.259 280.056C686.385 280.056 684.859 281.581 684.859 283.455C684.859 285.328 686.385 286.853 688.259 286.853C690.132 286.853 691.657 285.328 691.657 283.455C691.657 281.581 690.132 280.056 688.259 280.056ZM688.259 288.125C685.684 288.125 683.588 286.029 683.588 283.455C683.588 280.88 685.684 278.784 688.259 278.784C690.833 278.784 692.928 280.88 692.928 283.455C692.928 286.029 690.833 288.125 688.259 288.125Z" fill="#78C2FF"/>
<path d="M187.205 97.1146H216.719V67.6013H187.205V97.1146ZM217.991 98.3853H185.935V66.328H217.991V98.3853Z" fill="#A1D4FF"/>
<path d="M202.597 90.008H201.327V75.0667H202.597V90.008Z" fill="#A1D4FF"/>
<path d="M209.432 83.1733H194.492V81.9013H209.432V83.1733Z" fill="#A1D4FF"/>
<path d="M661.952 135.784H705.229V105.616H661.952V135.784ZM706.501 137.056H660.679V104.345H706.501V137.056Z" fill="#A1D4FF"/>
<path d="M683.591 124.157L660.912 105.472L661.721 104.491L683.591 122.511L705.463 104.491L706.271 105.472L683.591 124.157Z" fill="#A1D4FF"/>
<path d="M705.405 136.857L688.959 119.519L689.883 118.643L706.328 135.983L705.405 136.857Z" fill="#A1D4FF"/>
<path d="M661.777 136.857L660.855 135.983L677.3 118.643L678.223 119.519L661.777 136.857" fill="#A1D4FF"/>
<path d="M298.397 159.116C297.517 159.116 296.649 159.528 296.101 160.297C295.665 160.909 295.495 161.655 295.619 162.396C295.744 163.137 296.151 163.787 296.763 164.221C297.375 164.657 298.119 164.828 298.861 164.704C299.601 164.579 300.251 164.172 300.685 163.56C301.121 162.948 301.293 162.203 301.168 161.461C301.044 160.721 300.637 160.072 300.025 159.637C299.531 159.285 298.961 159.116 298.397 159.116V159.116ZM298.385 165.697C297.609 165.697 296.853 165.457 296.209 164.999C294.516 163.795 294.119 161.437 295.324 159.745C296.528 158.052 298.887 157.655 300.577 158.86C301.397 159.443 301.943 160.311 302.109 161.304C302.276 162.296 302.047 163.293 301.463 164.113C300.88 164.933 300.012 165.477 299.019 165.644C298.808 165.68 298.596 165.697 298.385 165.697V165.697ZM296.028 167.283L296.307 167.389C296.812 167.584 297.343 167.705 297.888 167.752L298.184 167.777L298.593 168.845L300.471 168.529L300.507 167.387L300.78 167.264C301.277 167.043 301.739 166.753 302.153 166.405L302.383 166.212L303.427 166.679L304.529 165.128L303.747 164.295L303.853 164.015C304.049 163.511 304.168 162.979 304.217 162.435L304.243 162.137L305.309 161.729L304.995 159.852L303.851 159.815L303.728 159.543C303.507 159.047 303.219 158.584 302.869 158.168L302.676 157.94L303.143 156.897L301.593 155.793L300.759 156.575L300.48 156.468C299.973 156.275 299.443 156.153 298.9 156.107L298.604 156.08L298.193 155.012L296.317 155.328L296.28 156.472L296.007 156.593C295.509 156.816 295.048 157.104 294.632 157.453L294.405 157.645L293.361 157.18L292.257 158.731L293.04 159.564L292.932 159.843C292.739 160.347 292.616 160.879 292.569 161.423L292.544 161.72L291.476 162.129L291.793 164.005L292.937 164.043L293.057 164.315C293.279 164.812 293.569 165.275 293.919 165.689L294.111 165.917L293.645 166.961L295.195 168.065L296.028 167.283ZM297.981 169.916L297.504 168.669C297.077 168.613 296.659 168.517 296.251 168.383L295.277 169.295L292.455 167.285L293 166.068C292.736 165.727 292.508 165.361 292.316 164.977L290.981 164.935L290.407 161.517L291.653 161.04C291.708 160.612 291.805 160.193 291.941 159.787L291.028 158.813L293.037 155.991L294.255 156.535C294.596 156.273 294.96 156.044 295.345 155.852L295.388 154.517L298.804 153.943L299.281 155.188C299.708 155.244 300.129 155.34 300.536 155.476L301.509 154.563L304.333 156.572L303.788 157.791C304.051 158.131 304.277 158.496 304.471 158.881L305.805 158.923L306.38 162.34L305.135 162.817C305.077 163.245 304.981 163.665 304.845 164.072L305.76 165.044L303.749 167.868L302.532 167.324C302.192 167.585 301.828 167.813 301.443 168.007L301.399 169.34L297.981 169.916" fill="#A1D4FF"/>
<path d="M272.169 149.045C269.995 149.045 267.848 150.061 266.495 151.965C265.416 153.48 264.993 155.323 265.301 157.155C265.611 158.985 266.613 160.588 268.127 161.665C271.252 163.889 275.604 163.156 277.828 160.031C278.904 158.519 279.328 156.675 279.02 154.843C278.711 153.011 277.708 151.409 276.193 150.332C274.972 149.463 273.564 149.045 272.169 149.045V149.045ZM272.149 164.223C270.5 164.223 268.833 163.728 267.389 162.701C263.695 160.071 262.828 154.924 265.457 151.228C268.088 147.532 273.233 146.665 276.931 149.296C280.627 151.925 281.495 157.073 278.864 160.768C277.261 163.021 274.723 164.223 272.149 164.223V164.223ZM266.809 168.887L267.181 169.028C268.389 169.492 269.659 169.781 270.952 169.893L271.349 169.928L272.325 172.475L277.404 171.619L277.491 168.893L277.853 168.731C279.041 168.201 280.145 167.511 281.133 166.679L281.439 166.423L283.928 167.533L286.913 163.336L285.049 161.349L285.191 160.977C285.653 159.771 285.944 158.501 286.056 157.207L286.089 156.809L288.637 155.833L287.78 150.755L285.055 150.668L284.892 150.305C284.363 149.117 283.671 148.013 282.84 147.027L282.584 146.721L283.695 144.232L279.5 141.245L277.511 143.111L277.14 142.968C275.932 142.505 274.664 142.215 273.369 142.104L272.971 142.069L271.997 139.523L266.917 140.377L266.831 143.104L266.467 143.267C265.28 143.796 264.176 144.487 263.187 145.319L262.883 145.575L260.393 144.464L257.408 148.66L259.273 150.648L259.129 151.02C258.667 152.227 258.377 153.496 258.265 154.791L258.231 155.188L255.684 156.163L256.54 161.243L259.267 161.328L259.428 161.692C259.957 162.879 260.648 163.983 261.481 164.972L261.736 165.277L260.625 167.765L264.823 170.752L266.809 168.887ZM271.509 173.901L270.444 171.12C269.303 170.992 268.181 170.736 267.104 170.356L264.935 172.392L259.04 168.197L260.253 165.48C259.541 164.585 258.931 163.611 258.436 162.575L255.459 162.48L254.257 155.347L257.039 154.283C257.167 153.141 257.424 152.02 257.804 150.941L255.768 148.772L259.96 142.879L262.679 144.092C263.573 143.379 264.549 142.769 265.585 142.273L265.679 139.297L272.812 138.095L273.877 140.876C275.017 141.005 276.137 141.261 277.219 141.643L279.388 139.605L285.28 143.8L284.067 146.516C284.78 147.412 285.389 148.385 285.887 149.423L288.861 149.517L290.064 156.651L287.283 157.715C287.155 158.856 286.897 159.976 286.516 161.056L288.555 163.225L284.359 169.119L281.643 167.905C280.748 168.619 279.773 169.228 278.736 169.724L278.643 172.7L271.509 173.901" fill="#A1D4FF"/>
<path d="M105.114 177.293C93.8511 177.293 84.6896 168.129 84.6896 156.867C84.6896 145.604 93.8511 136.441 105.114 136.441C116.377 136.441 125.54 145.604 125.54 156.867H124.268C124.268 146.305 115.675 137.713 105.114 137.713C94.5516 137.713 85.9604 146.305 85.9604 156.867C85.9604 167.428 94.5516 176.021 105.114 176.021V177.293ZM105.114 180.591C92.0333 180.591 81.3901 169.948 81.3901 156.867H82.6609C82.6609 169.248 92.7339 179.319 105.114 179.319C117.494 179.319 127.567 169.248 127.567 156.867C127.567 144.487 117.494 134.415 105.114 134.415V133.143C118.195 133.143 128.838 143.785 128.838 156.867C128.838 169.948 118.195 180.591 105.114 180.591Z" fill="#78C2FF"/>
<path d="M102.208 164.727L93.6505 156.169L94.55 155.271L102.208 162.928L115.679 149.457L116.578 150.356L102.208 164.727" fill="#78C2FF"/>
<path d="M606.119 447.749H245.689L206.247 595.172H645.56L606.119 447.749Z" fill="url(#paint11_linear)"/>
<path d="M259.325 473.613H281.469C282.395 473.613 283.093 474.333 282.92 475.109L280.776 484.743C280.643 485.336 280.033 485.765 279.325 485.765H256.801C255.856 485.765 255.153 485.019 255.36 484.231L257.884 474.599C258.033 474.024 258.632 473.613 259.325 473.613Z" fill="white"/>
<path d="M291.624 473.613H308.364L306.137 485.765H289.077L291.624 473.613" fill="white"/>
<path d="M316.736 473.613H333.476L331.725 485.765L314.664 485.783L316.736 473.613" fill="white"/>
<path d="M341.847 473.613H358.588L357.315 485.765H340.255L341.847 473.613Z" fill="white"/>
<path d="M366.959 473.613H383.7L382.903 485.765H365.844L366.959 473.613Z" fill="white"/>
<path d="M392.069 473.613H408.812L408.495 485.765L391.433 485.783L392.069 473.613" fill="white"/>
<path d="M593.02 473.613H567.908L570.613 485.765H596.203L593.02 473.613Z" fill="white"/>
<path d="M559.537 473.613H542.796L545.025 485.765H562.084L559.537 473.613" fill="white"/>
<path d="M534.427 473.613H517.684L519.435 485.765L536.497 485.783L534.427 473.613" fill="white"/>
<path d="M509.315 473.613H492.572L493.845 485.765H510.905L509.315 473.613Z" fill="white"/>
<path d="M484.203 473.613H467.46L468.257 485.765H485.316L484.203 473.613Z" fill="white"/>
<path d="M459.091 473.613H442.348L442.668 485.765L459.728 485.783L459.091 473.613" fill="white"/>
<path d="M417.181 473.613H433.924L434.2 485.765H417.181V473.613" fill="white"/>
<path d="M251.959 494.82H286.943L284.948 507.357H249.303L251.959 494.82" fill="white"/>
<path d="M598.481 494.82H555.239L557.703 507.357H601.765L598.481 494.82Z" fill="white"/>
<path d="M546.591 494.82H529.295L531.265 507.357H548.889L546.591 494.82" fill="white"/>
<path d="M520.647 494.82H503.349L504.828 507.357H522.452L520.647 494.82Z" fill="white"/>
<path d="M494.703 494.82H477.405L478.389 507.357H496.015L494.703 494.82Z" fill="white"/>
<path d="M468.757 494.82H451.46L451.952 507.357H469.577L468.757 494.82Z" fill="white"/>
<path d="M246.733 517.167H282.497L279.888 529.619H243.471L246.733 517.167" fill="white"/>
<path d="M291.439 517.167H309.32L307.2 529.619H288.992L291.439 517.167Z" fill="white"/>
<path d="M318.261 517.167H452.365L452.864 529.619H316.304L318.261 517.167" fill="white"/>
<path d="M461.317 517.167H479.197L480.176 529.619H461.968L461.317 517.167Z" fill="white"/>
<path d="M488.14 517.167H506.021L507.489 529.619H489.28L488.14 517.167" fill="white"/>
<path d="M514.963 517.167H532.843L534.801 529.619H516.593L514.963 517.167Z" fill="white"/>
<path d="M541.785 517.167H559.667L562.113 529.619H543.905L541.785 517.167" fill="white"/>
<path d="M568.609 517.167H604.372L607.633 529.619H571.219L568.609 517.167" fill="white"/>
<path d="M442.848 494.82H425.692V507.357H443.177L442.848 494.82Z" fill="white"/>
<path d="M416.904 494.82H399.608L399.113 507.357H416.739L416.904 494.82Z" fill="white"/>
<path d="M390.959 494.82H373.664L372.677 507.357H390.303L390.959 494.82Z" fill="white"/>
<path d="M365.015 494.82H347.719L346.239 507.357H363.865L365.015 494.82Z" fill="white"/>
<path d="M339.069 494.82H321.773L319.801 507.357H337.427L339.069 494.82" fill="white"/>
<path d="M313.124 494.82H295.828L293.365 507.357H310.991L313.124 494.82" fill="white"/>
<path d="M260.143 465.976L262.984 455.127H271.112L268.46 465.976H260.143" fill="white"/>
<path d="M279.241 455.127H295.497L293.223 465.976H276.683L279.241 455.127" fill="white"/>
<path d="M303.627 455.127H319.883L318.036 465.976H301.495L303.627 455.127" fill="white"/>
<path d="M328.012 455.127H344.268L342.847 465.976H326.307L328.012 455.127" fill="white"/>
<path d="M352.396 455.127H368.653L367.659 465.976H351.117L352.396 455.127" fill="white"/>
<path d="M376.781 455.127H393.039L392.471 465.976H375.929L376.781 455.127" fill="white"/>
<path d="M401.167 455.127H417.424L417.281 465.976H400.741L401.167 455.127" fill="white"/>
<path d="M425.552 455.127H441.809L442.093 465.976H425.552V455.127" fill="white"/>
<path d="M449.937 455.127H466.195L466.905 465.976H450.364L449.937 455.127" fill="white"/>
<path d="M474.323 455.127H490.58L491.717 465.976H475.176L474.323 455.127" fill="white"/>
<path d="M498.708 455.127H514.965L516.528 465.976H499.987L498.708 455.127" fill="white"/>
<path d="M523.093 455.127H539.351L541.34 465.976H524.799L523.093 455.127" fill="white"/>
<path d="M547.479 455.127H563.735L566.152 465.976H549.611L547.479 455.127" fill="white"/>
<path d="M571.864 455.127H588.12L590.963 465.976H574.421L571.864 455.127" fill="white"/>
<path d="M634.083 606.649H217.723C211.385 606.649 206.247 601.51 206.247 595.172H645.56C645.56 601.51 640.421 606.649 634.083 606.649Z" fill="url(#paint12_linear)"/>
<path d="M476.973 547.533C476.544 544.937 474.3 543.035 471.668 543.035H425.903H380.137C377.507 543.035 375.264 544.937 374.835 547.533L369.116 582.137C368.575 585.412 371.101 588.388 374.419 588.388H425.903H477.388C480.707 588.388 483.232 585.412 482.692 582.137L476.973 547.533Z" fill="#4D78EB"/>
<path d="M318.148 253.56H280.889V249.745H318.148V253.56Z" fill="#E0E0E0"/>
<path d="M355.475 282.284H328.575V278.471H355.475V282.284Z" fill="#E0E0E0"/>
<path d="M377.515 282.284H359.665V278.471H377.515V282.284Z" fill="#1487E3"/>
<path d="M299.164 354.523H281.313V350.707H299.164V354.523Z" fill="#1487E3"/>
<path d="M424.143 282.284H381.044V278.471H424.143V282.284" fill="#E0E0E0"/>
<path d="M309.007 340.053H281.313V336.239H309.007V340.053Z" fill="#E0E0E0"/>
<path d="M336.825 368.884H319.919V365.071H336.825V368.884Z" fill="#E0E0E0"/>
<path d="M314.809 368.884H281.313V365.071H314.809V368.884Z" fill="#1487E3"/>
<path d="M299.788 383.248H281.313V379.432H299.788V383.248Z" fill="#E0E0E0"/>
<path d="M351.844 253.56H325.395V249.745H351.844V253.56Z" fill="#78C2FF"/>
<path d="M351.844 296.648H325.395V292.833H351.844V296.648Z" fill="#1487E3"/>
<path d="M323.472 311.011H312.171V307.195H323.472V311.011Z" fill="#E0E0E0"/>
<path d="M326.255 325.584H300.871V321.771H326.255V325.584Z" fill="#78C2FF"/>
<path d="M365.132 325.584H330.091V321.771H365.132V325.584Z" fill="#1487E3"/>
<path d="M307.763 311.116H281.313V307.301H307.763V311.116Z" fill="#1487E3"/>
<path d="M297.007 325.584H281.313V321.771H297.007V325.584Z" fill="#1487E3"/>
<path d="M343.607 311.116H328.8V307.301H343.607V311.116Z" fill="#FF8761"/>
<path d="M296.561 397.609H281.757V393.796H296.561V397.609Z" fill="#FF8761"/>
<path d="M307.656 282.284H281.208V278.471H307.656V282.284Z" fill="#78C2FF"/>
<path d="M331.047 354.523H304.597V350.707H331.047V354.523Z" fill="#78C2FF"/>
<path d="M331.372 383.248H304.924V379.432H331.372V383.248Z" fill="#78C2FF"/>
<path d="M378.356 383.248H351.908V379.432H378.356V383.248Z" fill="#78C2FF"/>
<path d="M318.911 296.648H281.208V292.833H318.911V296.648Z" fill="#78C2FF"/>
<path d="M484.333 253.56H457.885V249.745H484.333V253.56Z" fill="#78C2FF"/>
<path d="M390.112 397.609H363.664V393.796H390.112V397.609Z" fill="#78C2FF"/>
<path d="M510.268 253.56H492.561V249.745H510.268V253.56Z" fill="#78C2FF"/>
<path d="M570.167 267.921H552.463V264.108H570.167V267.921Z" fill="#78C2FF"/>
<path d="M392.664 253.56H358.965V249.745H392.664V253.56" fill="#1487E3"/>
<path d="M523.956 267.921H490.26V264.108H523.956V267.921Z" fill="#1487E3"/>
<path d="M482.629 282.284H448.932V278.471H482.629V282.284Z" fill="#1487E3"/>
<path d="M438.757 296.648H405.06V292.833H438.757V296.648Z" fill="#1487E3"/>
<path d="M510.824 282.284H486.869V278.471H510.824V282.284Z" fill="#78C2FF"/>
<path d="M451.281 253.56H417.585V249.745H451.281V253.56Z" fill="#FF8761"/>
<path d="M398.892 296.648H379.135V292.833H398.892V296.648Z" fill="#FF8761"/>
<path d="M383.421 354.735H363.664V350.919H383.421V354.735Z" fill="#FF8761"/>
<path d="M411.228 253.56H398.892V249.745H411.228V253.56Z" fill="#E0E0E0"/>
<path d="M371.299 296.648H358.965V292.833H371.299V296.648Z" fill="#E0E0E0"/>
<path d="M544.419 267.921H532.083V264.108H544.419V267.921Z" fill="#E0E0E0"/>
<path d="M300.187 267.921H280.889V264.108H300.187V267.921Z" fill="#1487E3"/>
<path d="M347.611 340.159H332.377V336.344H347.611V340.159Z" fill="#1487E3"/>
<path d="M311.153 267.921H304.924V264.108H311.153V267.921Z" fill="#1487E3"/>
<path d="M484.333 267.921H432.833V264.108H484.333V267.921Z" fill="#E0E0E0"/>
<path d="M434.921 383.248H383.421V379.432H434.921V383.248Z" fill="#E0E0E0"/>
<path d="M322.089 267.921H315.732V264.108H322.089V267.921Z" fill="#FF8761"/>
<path d="M428.076 267.921H411.228V264.108H428.076V267.921Z" fill="#1487E3"/>
<path d="M444.925 282.284H428.076V278.471H444.925V282.284Z" fill="#FF8761"/>
<path d="M358.288 397.609H341.44V393.796H358.288V397.609" fill="#FF8761"/>
<path d="M406.768 267.921H370.919V264.108H406.768V267.921Z" fill="#1487E3"/>
<path d="M358.495 354.735H337.551V350.919H358.495V354.735Z" fill="#1487E3"/>
<path d="M346.676 383.248H336.203V379.432H346.676V383.248Z" fill="#1487E3"/>
<path d="M365.833 267.921H353.497V264.108H365.833V267.921Z" fill="#78C2FF"/>
<path d="M324.315 282.284H311.981V278.471H324.315V282.284Z" fill="#FF8761"/>
<path d="M326.773 340.159H314.44V336.344H326.773V340.159Z" fill="#FF8761"/>
<path d="M348.793 267.921H327.303V264.108H348.793V267.921Z" fill="#1487E3"/>
<path d="M606.133 416.347H647.448V297.606H606.133V416.347Z" fill="#FDFDFD"/>
<path d="M592.749 416.347H606.133V297.606H592.749V416.347Z" fill="url(#paint13_linear)"/>
<path d="M592.749 416.347H486.125C483.169 416.347 480.773 413.949 480.773 410.993V302.959C480.773 300.003 483.169 297.607 486.125 297.607H592.749V416.347Z" fill="url(#paint14_linear)"/>
<path d="M644.269 415.828C647.448 404.381 642.96 396.064 642.171 388.157C641.653 382.989 644.264 380.172 647.324 379.6V410.993C647.324 413.127 646.076 414.968 644.269 415.828Z" fill="url(#paint15_linear)"/>
<path d="M617.684 329.889H647.324V328.617H617.684V329.889Z" fill="#DFF0FF"/>
<path d="M629.337 366.967H602.504C601.369 366.967 600.449 366.047 600.449 364.915V360.769C600.449 359.636 601.369 358.716 602.504 358.716H629.337C630.473 358.716 631.392 359.636 631.392 360.769V364.915C631.392 366.047 630.473 366.967 629.337 366.967Z" fill="#4AAFFF"/>
<path d="M629.337 382.415H602.504C601.369 382.415 600.449 381.496 600.449 380.361V376.217C600.449 375.084 601.369 374.164 602.504 374.164H629.337C630.473 374.164 631.392 375.084 631.392 376.217V380.361C631.392 381.496 630.473 382.415 629.337 382.415Z" fill="#4AAFFF"/>
<path d="M629.337 397.863H602.504C601.369 397.863 600.449 396.944 600.449 395.809V391.667C600.449 390.531 601.369 389.612 602.504 389.612H629.337C630.473 389.612 631.392 390.531 631.392 391.667V395.809C631.392 396.944 630.473 397.863 629.337 397.863Z" fill="#4AAFFF"/>
<path d="M553.812 388.247C539.928 393.212 524.963 388.731 515.944 378.128C513.793 375.601 511.981 372.727 510.603 369.547C510.297 368.847 510.013 368.128 509.752 367.399C507.128 360.061 507.143 352.421 509.304 345.521C512.423 335.557 520.012 327.124 530.599 323.34C534.093 322.089 537.656 321.44 541.173 321.332C555.707 320.893 569.497 329.756 574.659 344.185C581.069 362.109 571.735 381.836 553.812 388.247V388.247ZM585.491 340.312C578.608 321.067 560.216 309.248 540.831 309.831C536.137 309.972 531.388 310.839 526.725 312.505C512.607 317.557 502.481 328.804 498.321 342.091C495.439 351.3 495.42 361.487 498.92 371.273C499.268 372.248 499.645 373.203 500.052 374.139C501.892 378.377 504.309 382.212 507.177 385.583C519.208 399.725 539.168 405.701 557.687 399.081C581.593 390.528 594.041 364.219 585.491 340.312" fill="#4AAFFF"/>
<path d="M509.304 345.521L498.321 342.091C502.481 328.804 512.607 317.557 526.725 312.505C531.388 310.839 536.137 309.972 540.831 309.831L541.173 321.332C537.656 321.44 534.093 322.089 530.599 323.34C520.012 327.124 512.423 335.557 509.304 345.521" fill="#1A598C"/>
<path d="M510.603 369.547L500.052 374.139C499.645 373.203 499.268 372.248 498.92 371.273C495.42 361.487 495.439 351.3 498.321 342.091L509.304 345.521C507.143 352.421 507.128 360.061 509.752 367.399C510.013 368.128 510.297 368.847 510.603 369.547" fill="#2273B5"/>
<path d="M507.177 385.583C504.309 382.212 501.892 378.377 500.052 374.139L510.603 369.547C511.981 372.727 513.793 375.601 515.944 378.128L507.177 385.583Z" fill="#3788CC"/>
<path d="M557.552 383.059C557.552 383.059 555.325 379.161 558.856 368.717C562.271 358.617 574.095 359.532 577.851 366.004C581.609 372.473 580.34 376.495 574.808 383.8C569.276 391.107 559.847 386.399 557.552 383.059Z" fill="#EEA886"/>
<path d="M585.012 562.743C585.012 562.743 585.597 567.031 585.671 567.677C585.743 568.32 592.179 567.297 592.179 567.297L592.7 562.191C592.7 562.191 585.817 562.138 585.012 562.743" fill="#EEA886"/>
<path d="M585.601 567.132C585.601 567.132 583.561 569.716 581.591 570.841C579.619 571.969 576.52 572.414 575.353 573.581C574.512 574.421 572.288 578.047 580.479 577.972C588.668 577.901 592.616 578.485 593.495 577.096C594.372 575.705 592.225 566.841 592.225 566.841C592.225 566.841 590.221 567.407 585.601 567.132" fill="#414773"/>
<path d="M540.455 562.743C540.455 562.743 541.041 567.031 541.113 567.677C541.187 568.32 547.621 567.297 547.621 567.297L548.143 562.191C548.143 562.191 541.26 562.138 540.455 562.743" fill="#EEA886"/>
<path d="M541.047 567.132C541.047 567.132 539.007 569.716 537.035 570.841C535.063 571.969 527.805 572.893 526.64 574.06C525.797 574.903 524.397 578.291 535.921 577.972C544.109 577.748 548.06 578.485 548.939 577.096C549.816 575.705 547.668 566.841 547.668 566.841C547.668 566.841 545.124 567.293 541.047 567.132" fill="#414773"/>
<path d="M582.845 455.945C582.845 455.945 586.145 466.197 585.711 475.033C585.276 483.869 587.416 493.539 588.291 502.769C589.268 513.059 593.26 537.419 593.403 542.924C593.549 548.426 592.784 566.005 592.784 566.005L584.792 566.196C584.792 566.196 578.081 523.609 576.343 519.264C574.605 514.919 565.984 483.939 565.695 480.463C565.405 476.985 582.845 455.945 582.845 455.945" fill="#2D314F"/>
<path d="M549.713 454.877C549.713 454.877 544.861 481.987 544.28 487.396C543.703 492.804 543.315 513.567 543.025 516.947C542.736 520.325 541.095 561.176 539.549 566.196H548.46C548.46 566.196 557.609 536.502 557.609 522.451C557.609 508.4 563.667 491.905 567.577 482.636C571.489 473.364 580.441 473.145 582.845 455.945C582.845 455.945 552.967 449.423 549.713 454.877" fill="#2D314F"/>
<path d="M560.783 385.815C560.783 385.815 561.788 388.741 560.783 390.829C559.777 392.916 573.624 391.664 573.624 391.664C573.624 391.664 572.999 387.349 574.808 383.8C576.616 380.251 560.783 385.815 560.783 385.815" fill="#EEA886"/>
<path d="M583.488 458.18C583.488 458.18 578.507 463.296 549.267 457.383L549.713 454.877L582.953 456.131L583.488 458.18" fill="#2B3B57"/>
<path d="M558.687 391.507C558.687 391.507 553.572 392.028 552.111 392.307C550.651 392.584 540.815 390.547 538.796 390.339C536.777 390.131 528.173 384.236 527.895 383.539C527.617 382.844 522.661 370.295 522.383 367.581C522.104 364.864 517.555 366.267 517.944 368.137C518.673 371.636 519.611 380.127 520.125 382.588C520.68 385.247 522.167 391.264 523.001 392.005C523.836 392.747 531.584 398.639 539.168 401.143C546.755 403.648 552.463 407.337 552.463 407.337H589.843C589.843 407.337 604.383 386.555 604.695 383.423C605.007 380.292 594.54 359.48 592.452 356.869C590.364 354.26 587.345 357.721 587.345 357.721C587.345 357.721 593.601 376.076 594.435 378.685C595.271 381.295 587.16 392.759 584.932 392.795C582.705 392.829 576.989 392.097 574.448 391.993C571.908 391.888 569.228 390.775 569.228 390.775L558.687 391.507Z" fill="#EEA886"/>
<path d="M542.577 405.388C542.577 405.388 547.155 408.431 547.572 413.648C547.989 418.868 549.66 427.113 550.495 429.931C551.331 432.751 549.764 453.207 549.555 454.668C549.345 456.131 578.48 459.601 582.953 456.131C582.953 456.131 584.207 437.028 584.728 431.601C585.251 426.175 587.755 413.024 588.591 411.249C589.425 409.473 599.549 395.273 599.967 393.401C599.967 393.401 594.728 385.051 590.972 384.947C590.972 384.947 585.004 391.94 583.059 392.252C581.112 392.565 569.187 390.38 569.184 390.361C569.184 390.361 567.883 392.136 560.963 390.047C560.963 390.047 552.721 390.976 551.381 391.147C549.757 391.356 538.473 389.732 538.473 389.732C538.473 389.732 533.945 397.377 534.739 401.236L542.577 405.388" fill="#FFC655"/>
<path d="M522.644 369.211C522.644 369.211 521.621 364.373 522.853 362.984C523.555 362.195 525.236 360.1 525.389 359.793C525.544 359.485 527.351 358.447 527.351 357.947C527.351 357.447 525.583 356.832 524.045 358.255C522.507 359.677 521.547 359.985 520.932 359.831C520.315 359.677 519.432 354.564 519.355 353.296C519.277 352.027 518.788 348.681 517.995 348.913C517.201 349.143 517.24 350.604 517.24 350.604C517.24 350.604 516.317 348.065 515.703 348.567C515.087 349.065 515.164 350.297 515.164 350.297C515.164 350.297 514.009 348.873 513.703 349.912C513.395 350.951 513.703 351.872 513.703 351.872C513.703 351.872 512.509 351.219 512.435 352.833C512.356 354.448 512.78 359.177 513.625 360.869C514.471 362.561 517.637 366.985 518.015 368.713C518.392 370.443 522.644 369.211 522.644 369.211Z" fill="#EEA886"/>
<path d="M588.364 360.716C588.364 360.716 584.887 354.869 583.703 354.348C582.52 353.825 580.851 353.529 579.389 352.485C577.928 351.443 575.997 350.573 576.101 350.225C576.205 349.877 577.928 350.016 579.772 350.816C581.616 351.616 582.424 351.229 582.599 350.812C582.773 350.395 581.616 347.447 581.059 346.751C580.501 346.055 576.536 342.065 577.197 341.473C577.859 340.883 580.433 343.076 580.851 343.527C580.851 343.527 578.797 339.213 579.599 339.004C580.397 338.795 581.893 340.325 581.893 340.325C581.893 340.325 581.721 336.639 585.687 342.623C585.687 342.623 584.851 340.639 586.069 341.301C587.287 341.961 588.471 345.685 588.853 347.564C589.235 349.441 590.972 355.427 592.452 356.869C593.932 358.313 588.364 360.716 588.364 360.716" fill="#EEA886"/>
<path d="M574.808 383.8C574.808 383.8 572.976 383.963 569.079 382.617C565.181 381.271 564.891 374.459 564.049 375.264C562.329 376.912 560.705 375.775 560.056 374.8C560.056 374.8 561.957 372.296 561.076 371.088C560.195 369.883 558.76 369.003 558.76 369.003C558.76 369.003 561.5 355.793 573.973 361.811C588.585 368.863 574.808 383.8 574.808 383.8Z" fill="#353A3D"/>
<path d="M560.783 390.829L561.223 388.919C561.223 388.919 569.183 388.757 573.525 389.387L573.984 391.669C573.984 391.669 568.421 394.192 560.783 390.829Z" fill="#D4D8E8"/>
<path d="M562.747 373.593C563.469 372.393 566.143 371.583 566.457 374.985C566.701 377.625 561.679 380.507 561.632 378.048C561.587 375.588 562.265 374.393 562.747 373.593Z" fill="#EEA886"/>
<path d="M522.455 368.113C522.455 368.113 519.583 368.183 518.189 369.441C518.189 369.441 518.099 370.241 518.421 370.869C518.421 370.869 520.911 369.708 522.821 369.491C522.821 369.491 522.788 368.447 522.455 368.113Z" fill="#E55353"/>
<path d="M519.068 368.828C518.804 369.456 519.099 370.181 519.725 370.447C520.353 370.711 521.079 370.417 521.344 369.789C521.609 369.16 521.316 368.436 520.687 368.171C520.059 367.905 519.333 368.2 519.068 368.828Z" fill="#353A3D"/>
<path d="M448.517 266.751C448.517 266.751 452.623 273.711 454.356 274.848C456.711 276.391 455.235 277.951 454.117 277.952C453 277.953 447.293 278.361 446.036 276.935C444.777 275.508 444.156 271.231 442.985 270.112C441.816 268.995 440.609 264.548 443.555 263.468C446.161 262.511 448.517 266.751 448.517 266.751" fill="#6069A8"/>
<path d="M446.74 263.691C446.74 263.691 451.443 271.84 452.252 273.045C453.061 274.249 450.725 274.247 449.277 273.675C447.831 273.103 444.189 267.257 443.667 266.193C443.043 264.923 443.555 263.468 443.555 263.468L446.74 263.691" fill="#202338"/>
<path d="M441.976 268.076L443.061 276.431L443.637 276.456L443.457 270.445L441.976 268.076Z" fill="#6069A8"/>
<path d="M407.804 266.751C407.804 266.751 411.911 273.711 413.643 274.848C415.997 276.391 414.523 277.951 413.405 277.952C412.288 277.953 406.58 278.361 405.324 276.935C404.065 275.508 403.443 271.231 402.273 270.112C401.104 268.995 399.856 264.433 402.841 263.468C405.461 262.62 407.804 266.751 407.804 266.751" fill="#6069A8"/>
<path d="M406.273 263.707C406.273 263.707 410.728 271.84 411.54 273.045C412.349 274.249 410.012 274.247 408.565 273.675C407.117 273.103 403.476 267.257 402.953 266.193C402.331 264.923 402.841 263.468 402.841 263.468L406.273 263.707" fill="#202338"/>
<path d="M401.263 268.076L402.348 276.431L402.924 276.456L402.745 270.445L401.263 268.076Z" fill="#6069A8"/>
<path d="M389.589 203.412L426.741 220.34C426.741 220.34 430.888 221.689 431.353 226.293C432.804 240.667 443.555 263.468 443.555 263.468C447.004 265.153 446.74 263.691 446.74 263.691C444.567 256.712 441.92 227.952 440.976 216.389C440.776 213.94 440.652 212.263 440.624 211.727C440.607 211.361 440.208 210.885 439.52 210.328C434.421 206.193 413.444 197.635 413.444 197.635C397.695 197.235 389.589 203.412 389.589 203.412" fill="#202338"/>
<path d="M382.587 210.681C383.736 220.723 398.072 219.573 398.072 219.573H415.445C415.445 219.573 410.883 229.728 409.119 238.293C407.249 247.384 402.841 263.468 402.841 263.468C402.841 263.468 403.129 264.013 406.273 263.707C406.273 263.707 419.911 236.527 425.132 229.693C426.255 228.223 429.473 220.24 430.028 215.479C430.216 213.877 430.1 212.64 429.501 212.139C428.897 211.633 427.513 210.681 425.667 209.516C420.223 206.084 410.773 200.801 405.507 199.619C398.455 198.033 387.301 195.063 387.301 195.063C387.301 195.063 381.437 200.64 382.587 210.681" fill="#202338"/>
<path d="M394.411 133.331C394.411 133.331 391.811 128.393 393.077 123.136C394.345 117.879 399.223 112.64 406.367 115.047C413.509 117.452 419.283 123 415.001 129.416C410.72 135.832 418.877 138.729 416.797 141.783C414.72 144.836 415.507 148.024 416.388 148.735C417.268 149.444 420.107 151.976 419.793 154.975C419.481 157.972 405.936 146.237 405.936 146.237C405.936 146.237 398.557 131.415 394.411 133.331Z" fill="#464240"/>
<path d="M416.181 196.431C416.181 196.431 415.107 201.657 387.359 195.057C387.359 195.057 396.66 191.968 416.181 196.431Z" fill="#EB4747"/>
<path d="M387.044 196.524C386.612 197.345 386.183 198.167 385.753 198.988C395.896 199.283 406.04 199.579 416.181 199.875C414.579 194.501 415.099 187.227 415.38 181.704C415.723 174.959 419.447 170.269 419.052 163.447C421.057 163.772 421.404 163.833 423.415 164.14C420.34 155.384 419.288 151.045 409.741 147.675C406.632 146.577 404.591 146.36 401.225 146.637C390.168 147.548 386.833 147.679 381.403 157.699C389.904 159.053 388.504 162.105 391.083 170.563C392.34 174.687 393.653 179.289 392.979 183.639C392.315 187.921 387.044 192.619 387.044 196.524" fill="#325BB3"/>
<path d="M404.689 149.797C400.164 148.943 401.127 146.425 401.127 146.425C401.127 146.425 401.336 145.005 401.419 143.209C401.44 142.751 401.451 142.265 401.448 141.773C401.447 141.028 401.411 140.265 401.325 139.548C400.953 136.511 409.539 138.323 409.539 138.323C409.539 138.323 409.044 144.469 410.228 146.311C411.411 148.153 409.216 150.652 404.689 149.797Z" fill="#EEA886"/>
<path d="M396.056 146.409C396.056 146.409 405.184 156.949 408.559 159.392C408.559 159.392 412.436 155.889 410.047 146.639C410.047 146.639 405.639 144.431 396.056 146.409Z" fill="#EEA886"/>
<path d="M396.305 121.041C396.305 121.041 391.564 130.176 396.265 138.828C400.968 147.479 410.205 135.06 410.801 133.603C411.4 132.145 414.567 123.904 408.268 121.399C401.967 118.895 397.648 118.563 396.305 121.041Z" fill="#EEA886"/>
<path d="M397.881 124.283C397.881 124.283 394.617 128.569 394.231 131.736C394.231 131.736 392.932 125.748 396.605 119.995C400.277 114.243 409.617 119.721 410.869 122.02C412.119 124.319 415.785 126.344 409.627 136.221C409.627 136.221 398.552 128.527 397.881 124.283" fill="#464240"/>
<path d="M405.456 139.739C405.456 139.739 404.633 141.537 401.419 143.209C401.44 142.751 401.451 142.265 401.448 141.773C401.448 141.773 403.625 141.511 405.456 139.739" fill="#A77860"/>
<path d="M357.547 188.305C357.547 188.305 355.293 189.308 354.223 188.853C353.156 188.399 351.503 188.311 350.983 188.309C350.285 188.308 348.104 187.529 348.14 188.383C348.179 189.235 351.683 189.829 352.4 190.096C353.117 190.361 350.255 191.937 349.989 192.637C349.723 193.337 352.955 197.932 354.777 196.623C356.6 195.313 357.587 192.7 357.957 192.535C358.329 192.368 359.327 191.635 359.327 191.635L357.547 188.305" fill="#EEA886"/>
<path d="M350.333 192.231C350.333 192.231 345.049 196.612 344.967 197.204C344.884 197.796 345.163 198.073 345.675 197.684C346.187 197.295 350.916 193.6 350.916 193.6C350.916 193.6 345.62 199.853 345.443 200.317C345.337 200.589 345.845 201.155 346.141 200.972C346.437 200.789 352.068 194.901 352.068 194.901C352.068 194.901 347.135 200.751 347.109 201.188C347.085 201.571 347.679 201.984 348.077 201.576C348.476 201.168 353.385 196.008 353.385 196.008C353.385 196.008 350.085 200.499 350.288 200.893C350.413 201.136 350.831 201.643 351.643 200.456C352.455 199.269 354.687 196.683 354.687 196.683L350.333 192.231" fill="#EEA886"/>
<path d="M413.632 219.575H398.072C398.072 219.575 383.736 220.723 382.588 210.683C381.437 200.64 387.301 195.063 387.301 195.063C387.301 195.063 394.875 197.08 401.487 198.676C404.796 197.973 408.785 197.516 413.444 197.635C413.444 197.635 441.471 206.895 440.627 211.771C440.627 211.771 428.903 205.503 413.632 219.575" fill="#FF7E55"/>
<path d="M403.504 202.185L433.171 201.748L418.192 209.355L403.504 202.185Z" fill="#5E5853"/>
<path d="M412.721 198.395C412.721 198.395 406.047 200.979 397.865 198.641L397.483 195.587L414.328 196.524L412.721 198.395" fill="#325BB3"/>
<path d="M418.192 209.355L403.504 203.664V202.185L419.353 207.903L418.192 209.355Z" fill="#91887F"/>
<path d="M412.616 199.808C412.539 200.904 413.647 201.695 414.659 201.263L416.38 200.528C416.897 200.307 417.199 199.761 417.109 199.204C416.392 194.717 414.853 177.249 417.104 174.251C417.935 173.144 418.452 172.172 418.744 171.324C420.229 175.152 422.077 180.084 422.812 182.736L436.828 201.383L441.528 202.575C435.663 188.444 430.952 180.957 430.952 180.957C430.035 178.495 427.404 171.037 425.075 164.397C423.604 160.204 422.253 156.337 421.528 154.26C421.16 153.207 420.435 152.317 419.476 151.747C417.305 150.448 413.688 148.403 410.407 146.811L410.368 146.792L410.055 146.64L410.048 146.639L410.047 146.637C416.283 156.075 413.851 182.727 412.62 199.771L412.616 199.808Z" fill="#EDDAD3"/>
<path d="M389.463 147.443C387.464 147.751 382.509 152.561 379.88 157.416C376.877 162.957 373.82 169.265 371.529 171.34C367.317 175.157 355.525 188.647 354.965 188.32C354.749 188.195 358.199 192.348 358.637 192.541C358.856 192.639 378.017 176.035 379.857 173.505C381.604 171.107 386.269 161.041 387.665 161.263L387.668 161.271L387.671 161.275C387.777 161.503 389.473 165.183 391.083 170.563L391.163 170.831C392.271 174.583 392.168 178.656 391.568 183.233C391.115 186.688 388.536 192.336 386.981 195.085C386.793 195.416 386.841 196.045 387.044 196.524C387.165 196.809 387.34 197.041 387.555 197.12L393.179 199.204L394.501 199.695C395.453 200.047 396.452 199.863 397.197 199.321C397.809 198.877 398.251 198.193 398.359 197.365C399.609 187.744 401.192 177.913 402.453 174.211C407.988 157.961 400.291 145.752 400.291 145.752C400.291 145.752 391.216 146.788 389.463 147.443" fill="#EDDAD3"/>
<path d="M418.192 209.355L427.017 185.26L455.465 185.724L447.055 207.928L418.192 209.355" fill="#6E6760"/>
<path d="M436.119 195.919C435.252 197.655 435.513 199.544 436.705 200.14C437.897 200.736 439.567 199.812 440.435 198.077C441.303 196.343 441.041 194.452 439.848 193.856C438.659 193.26 436.988 194.184 436.119 195.919Z" fill="#807066"/>
<path d="M406.131 130.137C406.131 130.137 407.952 132.972 406.271 135.42C404.585 137.867 406.695 140.271 407.059 142.857C407.425 145.444 400.032 152.328 408.255 155.791C416.476 159.253 419.093 153.529 416.995 150.379C414.897 147.228 413.408 144.672 413.231 140.181C413.055 135.689 411.576 128.688 406.131 130.137Z" fill="#464240"/>
<path d="M346.576 96.1146H381.617V126.864L376.269 121.515H346.576V96.1146Z" fill="#78C2FF"/>
<defs>
<linearGradient id="paint0_linear" x1="234.687" y1="352.771" x2="635.259" y2="352.771" gradientUnits="userSpaceOnUse">
<stop stop-color="#40D5E6"/>
<stop offset="1" stop-color="#5577FF"/>
</linearGradient>
<linearGradient id="paint1_linear" x1="258.309" y1="335.039" x2="592.749" y2="335.039" gradientUnits="userSpaceOnUse">
<stop stop-color="#404B61"/>
<stop offset="0.468241" stop-color="#404B61"/>
<stop offset="1" stop-color="#2F3E5C"/>
</linearGradient>
<linearGradient id="paint2_linear" x1="699.647" y1="458.524" x2="785.697" y2="458.524" gradientUnits="userSpaceOnUse">
<stop stop-color="#3076A1"/>
<stop offset="1" stop-color="#639C38"/>
</linearGradient>
<linearGradient id="paint3_linear" x1="692.171" y1="445.977" x2="804.522" y2="445.977" gradientUnits="userSpaceOnUse">
<stop stop-color="#3076A1"/>
<stop offset="1" stop-color="#639C38"/>
</linearGradient>
<linearGradient id="paint4_linear" x1="666.359" y1="428.979" x2="738.829" y2="428.979" gradientUnits="userSpaceOnUse">
<stop stop-color="#3076A1"/>
<stop offset="1" stop-color="#639C38"/>
</linearGradient>
<linearGradient id="paint5_linear" x1="686.5" y1="444.651" x2="708.473" y2="444.651" gradientUnits="userSpaceOnUse">
<stop stop-color="#3076A1"/>
<stop offset="1" stop-color="#639C38"/>
</linearGradient>
<linearGradient id="paint6_linear" x1="636.771" y1="449.005" x2="707.707" y2="449.005" gradientUnits="userSpaceOnUse">
<stop stop-color="#3076A1"/>
<stop offset="1" stop-color="#639C38"/>
</linearGradient>
<linearGradient id="paint7_linear" x1="684.265" y1="609.724" x2="743.946" y2="377.631" gradientUnits="userSpaceOnUse">
<stop stop-color="#3076A1"/>
<stop offset="1" stop-color="#639C38"/>
</linearGradient>
<linearGradient id="paint8_linear" x1="705.96" y1="489.415" x2="732.184" y2="489.415" gradientUnits="userSpaceOnUse">
<stop stop-color="#3076A1"/>
<stop offset="1" stop-color="#639C38"/>
</linearGradient>
<linearGradient id="paint9_linear" x1="683.443" y1="536.695" x2="731.924" y2="536.695" gradientUnits="userSpaceOnUse">
<stop stop-color="#FF9340"/>
<stop offset="1" stop-color="#FFCE45"/>
</linearGradient>
<linearGradient id="paint10_linear" x1="683.443" y1="536.695" x2="731.924" y2="536.695" gradientUnits="userSpaceOnUse">
<stop stop-color="#C97332"/>
<stop offset="1" stop-color="#FFCE45"/>
</linearGradient>
<linearGradient id="paint11_linear" x1="425.904" y1="433.497" x2="425.904" y2="655.599" gradientUnits="userSpaceOnUse">
<stop stop-color="#40D5E6"/>
<stop offset="1" stop-color="#5577FF"/>
</linearGradient>
<linearGradient id="paint12_linear" x1="2.63148" y1="600.912" x2="441.945" y2="600.912" gradientUnits="userSpaceOnUse">
<stop stop-color="#40D5E6"/>
<stop offset="1" stop-color="#5577FF"/>
</linearGradient>
<linearGradient id="paint13_linear" x1="234.687" y1="352.771" x2="635.259" y2="352.771" gradientUnits="userSpaceOnUse">
<stop stop-color="#D1F5F9"/>
<stop offset="1" stop-color="#D6DEFF"/>
</linearGradient>
<linearGradient id="paint14_linear" x1="258.309" y1="335.039" x2="592.749" y2="335.039" gradientUnits="userSpaceOnUse">
<stop stop-color="#D1D4D9"/>
<stop offset="0.468241" stop-color="#D1D4D9"/>
<stop offset="1" stop-color="#CDD1D8"/>
</linearGradient>
<linearGradient id="paint15_linear" x1="636.771" y1="449.005" x2="707.707" y2="449.005" gradientUnits="userSpaceOnUse">
<stop stop-color="#CDDEE9"/>
<stop offset="1" stop-color="#DAE7CF"/>
</linearGradient>
</defs>
</svg>
